PathFileType	4	(X/Y/Z)	Patient4_TMGait_0pt7_01_right_19.trc.trc
DataRate	CameraRate	NumFrames	NumMarkers	Units	OrigDataRate	OrigDataStartFrame	OrigNumFrames
84.848484848485	84.848484848485	4	33	mm	84.848484848485	124	       141
Frame#	Time	Sacral			L.Shoulder			Chest			R.Shoulder			Neck			R.ASIS			L.ASIS			R.Thigh.Superior			R.Thigh.Lateral			R.Thigh.Inferior			R.Patella			L.Thigh.Superior			L.Thigh.Lateral			L.Thigh.Inferior			L.Patella			L.Shank.Superior			L.Shank.Lateral			L.Shank.Inferior			R.Shank.Superior			R.Shank.Lateral			R.Shank.Inferior			R.Heel			R.Midfoot.Superior			R.Midfoot.Lateral			R.Toe			L.Heel			L.Midfoot.Lateral			L.Midfoot.Superior			L.Toe			L.Elbow			L.Wrist			R.Elbow			R.Wrist			
		X1	Y1	Z1	X2	Y2	Z2	X3	Y3	Z3	X4	Y4	Z4	X5	Y5	Z5	X6	Y6	Z6	X7	Y7	Z7	X8	Y8	Z8	X9	Y9	Z9	X10	Y10	Z10	X11	Y11	Z11	X12	Y12	Z12	X13	Y13	Z13	X14	Y14	Z14	X15	Y15	Z15	X16	Y16	Z16	X17	Y17	Z17	X18	Y18	Z18	X19	Y19	Z19	X20	Y20	Z20	X21	Y21	Z21	X22	Y22	Z22	X23	Y23	Z23	X24	Y24	Z24	X25	Y25	Z25	X26	Y26	Z26	X27	Y27	Z27	X28	Y28	Z28	X29	Y29	Z29	X30	Y30	Z30	X31	Y31	Z31	X32	Y32	Z32	X33	Y33	Z33	

124	22.679642857143	860.348126284801	982.991257933157	445.976186498089	1049.181985682302	1414.382671767759	272.502912425829	1142.460461895049	1339.609434412726	437.558168573745	1052.348883942485	1418.062616797606	605.961581982334	1046.747760126386	1472.730413553087	425.268930665411	1087.828887437405	921.824995122983	567.041507276548	1076.182111650639	943.820289502980	290.817998174217	1163.956654787790	753.086708076777	535.419748313177	1118.733661714349	627.672631097663	605.899168785195	1208.172588731199	595.170881717489	526.447451479054	1238.424359620450	511.639597875956	538.536307600613	1065.450134893787	714.749054906168	315.513190139731	938.661929255899	629.765674174086	255.037874058250	990.854351872683	530.512665637217	317.752374419882	969.801321415121	463.205635339430	327.606510103031	929.491049347704	400.702659467061	319.354825167925	816.815495331166	308.355013668213	269.917914807381	841.838680731742	188.760774280743	340.897797360562	1226.790836420352	420.391242584774	548.388036425697	1176.564977308660	304.819273868948	609.978983308858	1245.274522780427	221.190279117040	554.839723358770	1150.701074595805	41.080945532635	526.377554326596	1316.137739724789	108.353499434919	562.516641249111	1235.983309113501	38.273523045820	597.639986823793	1439.939589699930	66.229890546716	585.662577119876	689.837617470865	47.066775679309	382.098508332566	763.473437723738	38.383080558385	302.321798493273	849.640709110112	96.265635034074	327.566533655340	975.316802944428	39.011298316703	298.424874200908	1139.918559219349	1109.095665676636	110.399165922791	1373.118816193205	1168.424373009578	184.307753647903	875.590391849173	1131.465185725024	722.606161972355	813.259133598246	875.514775998311	718.744647283357	
125	22.691428571429	862.417492343905	981.938945103806	448.549064765273	1050.463759364531	1413.238677429575	274.714175246561	1144.185381212406	1338.749659323050	439.712541553010	1054.092717139097	1417.029048849601	608.234148536873	1048.324362052872	1471.815595389375	427.559751787280	1090.254880454999	920.612932512051	569.425431537431	1078.129922951400	942.603329288716	293.613517240782	1166.753348428377	751.643466928374	537.741325786479	1119.325830652275	626.054626798413	606.389801926823	1209.479323326460	593.761286960446	527.826402499342	1238.022663325481	509.200546924070	538.832081158806	1067.541286952430	713.622659354632	317.365556442054	940.529925737978	628.665540018329	257.139508750811	993.063859823896	528.983485765681	319.325814892943	971.714111023366	460.677017406566	328.770501768345	929.416331309336	398.913102008326	320.460459964417	814.348447198480	309.508716040093	270.778625885610	836.644476901152	188.912964229036	340.869686852141	1225.520644111060	417.648815656852	548.163237084484	1173.646972442530	302.639773819586	609.417680408752	1240.442316540428	218.191542272395	553.580428190046	1141.885702086956	40.922140942470	525.237883522429	1308.777257742628	104.915160677950	560.588728817945	1227.030714479233	37.285185675256	596.674966171180	1431.834756635374	60.312369533043	584.020431987895	681.890286020154	49.877290573580	381.615554111172	755.427874588576	39.529358153605	302.047401286627	842.412963372461	96.549677800597	326.992833441629	967.090898114411	38.783719972303	298.371666524068	1138.562017230983	1106.527502899531	112.733218257983	1371.040707725221	1168.292998109588	186.591114495780	878.626470635135	1129.202092348175	724.326362862420	816.164213793072	873.164249750101	720.412035979978	
126	22.703214285714	864.334614766318	981.426583232812	451.162574656139	1051.905503477610	1412.527055350258	276.975374918290	1146.021054325412	1338.263657284672	441.915397386956	1056.041502827325	1416.434906355091	610.564363461721	1050.117541270447	1471.366934518001	429.929480141627	1092.537622969023	919.945095769710	571.905910449238	1079.935589849312	941.843965182215	296.335724380646	1169.479380085754	750.815807574961	540.106902182706	1120.079739841734	625.183251330782	607.116752385190	1210.739040952316	592.932534277025	529.248289331923	1237.746041145723	507.344522787350	539.309792759832	1069.994141778877	713.007219412955	319.283077338557	943.091722898554	627.644487080891	259.393723484311	996.482863473147	527.652218178706	320.887675031649	975.031905019956	458.153754579643	329.754959365947	930.407500591277	397.203949688760	321.524531599391	812.734388053328	311.167455878607	271.710767232168	832.102055424408	189.525903321697	340.776628797916	1224.218928871435	415.518761057498	548.137864882179	1170.768416173746	301.187514129139	609.376041909345	1235.332546570502	215.764746315704	552.646263275334	1132.600275246778	41.035310832617	524.623010025281	1300.905920030526	102.149345458420	559.089255432033	1217.715792022115	36.680472483172	596.151823115277	1423.304785985795	55.274327502947	582.669884285763	674.228327476878	53.879625865550	381.091575813926	747.506798912889	41.383049764591	301.765648377115	835.577295298907	97.041231844822	326.327593247363	958.761874497834	38.472917988317	298.383911842745	1136.360848331925	1103.786410977298	115.540105827658	1368.719746690945	1166.494725754086	188.837356175749	882.885432745024	1126.551256609962	726.182904537110	821.173034695488	870.243078430549	722.088877760141	
127	22.715000000000	866.075992348299	981.493341339585	453.809256123994	1053.492871902484	1412.301213162722	279.264183294316	1147.941395101932	1338.180205550425	444.133022654376	1058.200299797244	1416.333699630218	612.916156774148	1052.113037405257	1471.415577789903	432.340966738325	1094.636819636992	919.855152359804	574.460355825658	1081.527230674669	941.597192448153	298.950704243252	1171.959725676935	750.561016152862	542.488590268109	1120.858172518940	625.028028275853	608.132659476047	1211.739403255405	592.598282887708	530.723165339349	1237.373878273230	506.044837959404	540.049505378449	1072.797436323789	712.945904393710	321.261969032892	946.414344985077	626.709765519851	261.753999856648	1001.199224300003	526.564065765478	322.410752674963	979.840877516499	455.701088496432	330.520563650593	932.569558855340	395.626611723536	322.520423706355	812.115171463499	313.399408337854	272.702644228376	828.342089796580	190.706747099453	340.639547652760	1222.737114476036	413.990974215977	548.394524455708	1167.831481238203	300.393425432032	609.841701364794	1230.027895013085	213.937755544235	552.092338459774	1123.247377853921	41.292108109509	524.440447458795	1292.790661933884	100.126226196210	558.063702808608	1208.408975914198	36.388304783647	596.004464126756	1414.656504686394	51.366910684715	581.689078486703	666.983087198154	59.314006036590	380.560983752872	739.791188789063	44.164036831766	301.499733422890	829.225913386323	97.831124627579	325.612111234242	950.317636233557	38.045187819740	298.481982765840	1133.302724593490	1101.000231571494	118.825688710590	1366.176915693686	1163.046692279921	191.053031836697	888.309156214196	1123.672206387041	728.170479102147	828.300992689637	866.915121626014	723.736467735418	
